<?xml version="1.0" encoding="UTF-8"?>
<svg xmlns="http://www.w3.org/2000/svg" version="1.1" viewBox="0 0 800 800">
  <defs>
    <style>
      .cls-1 {
        fill: #f6f3ed;
      }
    </style>
  </defs>
  <!-- Generator: Adobe Illustrator 28.7.1, SVG Export Plug-In . SVG Version: 1.2.0 Build 142)  -->
  <g>
    <g id="Flat">
      <path class="cls-1" d="M500,400c0,55.2-44.8,100-100,100s-100-44.8-100-100,44.8-100,100-100c55.2,0,99.9,44.8,100,100ZM712.5,262.5v275c-.1,96.6-78.4,174.9-175,175h-275c-96.6-.1-174.9-78.4-175-175v-275c.1-96.6,78.4-174.9,175-175h275c96.6.1,174.9,78.4,175,175ZM550,400c0-82.8-67.2-150-150-150s-150,67.2-150,150,67.2,150,150,150c82.8,0,149.9-67.2,150-150ZM600,237.5c0-20.7-16.8-37.5-37.5-37.5s-37.5,16.8-37.5,37.5,16.8,37.5,37.5,37.5,37.5-16.8,37.5-37.5Z"/>
    </g>
  </g>
</svg>